<svg width="37" height="36" viewBox="0 0 37 36" fill="none" xmlns="http://www.w3.org/2000/svg">
<path id="Vector" d="M28.6762 18.7851L20.6678 15.8369L17.7195 7.82222C17.5449 7.3479 17.2291 6.93856 16.8145 6.64941C16.4 6.36026 15.9067 6.20523 15.4013 6.20523C14.8958 6.20523 14.4026 6.36026 13.988 6.64941C13.5735 6.93856 13.2576 7.3479 13.083 7.82222L10.1316 15.8275L2.11699 18.7758C1.64268 18.9504 1.23333 19.2663 0.944182 19.6808C0.655033 20.0954 0.5 20.5886 0.5 21.0941C0.5 21.5995 0.655033 22.0928 0.944182 22.5073C1.23333 22.9219 1.64268 23.2378 2.11699 23.4123L10.1208 26.3792L13.069 34.3892C13.2436 34.8635 13.5595 35.2729 13.9741 35.562C14.3886 35.8512 14.8819 36.0062 15.3873 36.0062C15.8927 36.0062 16.386 35.8512 16.8005 35.562C17.2151 35.2729 17.531 34.8635 17.7056 34.3892L20.6538 26.3808L28.6685 23.4325C29.1428 23.2579 29.5521 22.942 29.8413 22.5275C30.1304 22.1129 30.2855 21.6197 30.2855 21.1143C30.2855 20.6088 30.1304 20.1156 29.8413 19.701C29.5521 19.2865 29.1428 18.9706 28.6685 18.796L28.6762 18.7851ZM19.8019 24.0517C19.4665 24.1748 19.1618 24.3694 18.9091 24.6221C18.6565 24.8748 18.4618 25.1795 18.3387 25.5149L15.3904 33.5001L12.4483 25.5087C12.3251 25.175 12.1311 24.872 11.8795 24.6205C11.628 24.3689 11.325 24.1749 10.9913 24.0517L3.00613 21.1034L10.9913 18.1551C11.325 18.0319 11.628 17.8378 11.8795 17.5863C12.1311 17.3348 12.3251 17.0317 12.4483 16.6981L15.3966 8.71291L18.3449 16.6981C18.468 17.0335 18.6627 17.3382 18.9154 17.5909C19.168 17.8435 19.4727 18.0382 19.8081 18.1613L27.7933 21.1096L19.8019 24.0517ZM20.3621 4.9655C20.3621 4.63627 20.4929 4.32052 20.7257 4.08772C20.9585 3.85492 21.2743 3.72413 21.6035 3.72413H24.0862V1.24138C24.0862 0.912142 24.217 0.596394 24.4498 0.363591C24.6826 0.130787 24.9984 0 25.3276 0C25.6569 0 25.9726 0.130787 26.2054 0.363591C26.4382 0.596394 26.569 0.912142 26.569 1.24138V3.72413H29.0517C29.381 3.72413 29.6967 3.85492 29.9295 4.08772C30.1623 4.32052 30.2931 4.63627 30.2931 4.9655C30.2931 5.29474 30.1623 5.61049 29.9295 5.84329C29.6967 6.07609 29.381 6.20688 29.0517 6.20688H26.569V8.68963C26.569 9.01886 26.4382 9.33461 26.2054 9.56742C25.9726 9.80022 25.6569 9.93101 25.3276 9.93101C24.9984 9.93101 24.6826 9.80022 24.4498 9.56742C24.217 9.33461 24.0862 9.01886 24.0862 8.68963V6.20688H21.6035C21.2743 6.20688 20.9585 6.07609 20.7257 5.84329C20.4929 5.61049 20.3621 5.29474 20.3621 4.9655ZM36.5 12.4138C36.5 12.743 36.3692 13.0587 36.1364 13.2915C35.9036 13.5243 35.5879 13.6551 35.2586 13.6551H34.0173V14.8965C34.0173 15.2257 33.8865 15.5415 33.6537 15.7743C33.4209 16.0071 33.1051 16.1379 32.7759 16.1379C32.4466 16.1379 32.1309 16.0071 31.8981 15.7743C31.6653 15.5415 31.5345 15.2257 31.5345 14.8965V13.6551H30.2931C29.9639 13.6551 29.6481 13.5243 29.4153 13.2915C29.1825 13.0587 29.0517 12.743 29.0517 12.4138C29.0517 12.0845 29.1825 11.7688 29.4153 11.536C29.6481 11.3032 29.9639 11.1724 30.2931 11.1724H31.5345V9.93101C31.5345 9.60177 31.6653 9.28602 31.8981 9.05322C32.1309 8.82042 32.4466 8.68963 32.7759 8.68963C33.1051 8.68963 33.4209 8.82042 33.6537 9.05322C33.8865 9.28602 34.0173 9.60177 34.0173 9.93101V11.1724H35.2586C35.5879 11.1724 35.9036 11.3032 36.1364 11.536C36.3692 11.7688 36.5 12.0845 36.5 12.4138Z" fill="black"/>
</svg>
