<svg width="40" height="40" viewBox="0 0 40 40" fill="none" xmlns="http://www.w3.org/2000/svg">
<path d="M8.78173 16.2502C8.77965 14.7683 9.07077 13.3006 9.63833 11.9317C10.2059 10.5628 11.0387 9.31966 12.0887 8.27397C13.1388 7.22829 14.3853 6.40068 15.7566 5.83881C17.1278 5.27695 18.5967 4.99193 20.0786 5.00017C26.2661 5.04705 31.2192 10.1877 31.2192 16.3908V17.5002C31.2192 23.0939 32.3911 26.3439 33.4224 28.1252C33.5319 28.3149 33.5896 28.53 33.5898 28.7491C33.59 28.9681 33.5326 29.1834 33.4235 29.3733C33.3143 29.5632 33.1571 29.721 32.9677 29.8311C32.7783 29.9411 32.5633 29.9994 32.3442 30.0002H7.65673C7.43768 29.9994 7.22268 29.9411 7.03327 29.8311C6.84386 29.721 6.68669 29.5632 6.5775 29.3733C6.46831 29.1834 6.41094 28.9681 6.41113 28.7491C6.41133 28.53 6.46908 28.3149 6.57861 28.1252C7.60986 26.3439 8.78173 23.0939 8.78173 17.5002V16.2502Z" stroke="#595959" stroke-width="2.37458" stroke-linecap="round" stroke-linejoin="round"/>
<path d="M15 30V31.25C15 32.5761 15.5268 33.8478 16.4645 34.7855C17.4021 35.7232 18.6739 36.25 20 36.25C21.3261 36.25 22.5979 35.7232 23.5355 34.7855C24.4732 33.8478 25 32.5761 25 31.25V30" stroke="#595959" stroke-width="2.37458" stroke-linecap="round" stroke-linejoin="round"/>
</svg>
