<svg width="40" height="40" viewBox="0 0 40 40" fill="none" xmlns="http://www.w3.org/2000/svg">
<path d="M7.09417 27.6569C5.23306 24.5169 4.58206 20.8055 5.2634 17.2196C5.94474 13.6336 7.91156 10.4197 10.7946 8.18112C13.6777 5.94254 17.2787 4.83328 20.9216 5.06158C24.5646 5.28989 27.9989 6.84005 30.58 9.42107C33.161 12.0021 34.7111 15.4364 34.9394 19.0794C35.1677 22.7223 34.0585 26.3234 31.8199 29.2064C29.5813 32.0895 26.3674 34.0563 22.7814 34.7376C19.1955 35.419 15.4842 34.768 12.3442 32.9069V32.9069L7.15667 34.3756C6.94414 34.4378 6.71879 34.4416 6.50426 34.3867C6.28973 34.3319 6.09391 34.2203 5.93733 34.0637C5.78075 33.9071 5.66917 33.7113 5.61429 33.4968C5.55942 33.2822 5.56326 33.0569 5.62542 32.8444L7.09417 27.6569Z" stroke="#595959" stroke-width="2.37458" stroke-linecap="round" stroke-linejoin="round"/>
</svg>
