<svg width="18" height="18" viewBox="0 0 18 18" fill="none" xmlns="http://www.w3.org/2000/svg">
<g id="Warning">
<path id="Vector" d="M9 7.3125V10.125" stroke="#CF1322" stroke-width="1.5" stroke-linecap="round" stroke-linejoin="round"/>
<path id="Vector_2" d="M8.02963 2.81268L1.84213 13.5002C1.74356 13.6709 1.69158 13.8645 1.69141 14.0617C1.69123 14.2588 1.74287 14.4526 1.84114 14.6235C1.93941 14.7944 2.08086 14.9364 2.25133 15.0355C2.4218 15.1345 2.6153 15.187 2.81244 15.1877H15.1874C15.3846 15.187 15.5781 15.1345 15.7486 15.0355C15.919 14.9364 16.0605 14.7944 16.1587 14.6235C16.257 14.4526 16.3087 14.2588 16.3085 14.0617C16.3083 13.8645 16.2563 13.6709 16.1578 13.5002L9.97026 2.81268C9.87242 2.64173 9.73116 2.49965 9.56077 2.40085C9.39038 2.30204 9.19691 2.25 8.99994 2.25C8.80298 2.25 8.60951 2.30204 8.43912 2.40085C8.26873 2.49965 8.12746 2.64173 8.02963 2.81268V2.81268Z" stroke="#CF1322" stroke-width="1.5" stroke-linecap="round" stroke-linejoin="round"/>
<path id="Vector_3" d="M9.09375 12.6562C9.09375 12.708 9.05178 12.75 9 12.75C8.94822 12.75 8.90625 12.708 8.90625 12.6562C8.90625 12.6045 8.94822 12.5625 9 12.5625C9.05178 12.5625 9.09375 12.6045 9.09375 12.6562Z" fill="#CF1322" stroke="#CF1322" stroke-width="1.5"/>
</g>
</svg>
